<svg version="1.0" xmlns="http://www.w3.org/2000/svg" width="100%" height="100%" viewBox="0 0 150 150">
	<g fill="#c9098e">
		<g class="iconsvg-imagesvg" transform="translate(44.730003356933594,0)">
			<g>
				<svg x="0" y="0" width="60" height="58.37200478650439" filtersec="colorsb7279438706">
					<svg xmlns="http://www.w3.org/2000/svg" viewBox="9.995712280273438 6.519998550415039 1010.0086059570312 982.5999755859375">
						<path fill="#C9098E" d="M510.98 989.12c-12.34 0-24.86-2.87-36.59-8.92-39.18-20.24-54.53-68.41-34.29-107.59l212.57-411.44c20.24-39.17 68.4-54.52 107.59-34.29 39.18 20.24 54.53 68.41 34.29 107.59L581.98 945.9c-14.18 27.47-42.09 43.22-71 43.22z"></path>
						<path fill="#6B0CC6" d="M940.2 989.12c-28.91 0-56.82-15.75-71.01-43.22L515 260.33 160.8 945.9c-20.24 39.18-68.41 54.52-107.59 34.29-39.18-20.24-54.53-68.41-34.29-107.59L444.06 49.72A79.844 79.844 0 0 1 515 6.52c29.86 0 57.23 16.66 70.94 43.2l425.14 822.89c20.24 39.18 4.89 87.35-34.29 107.59-11.72 6.05-24.25 8.92-36.59 8.92z"></path>
						<path fill="#DD0BA6" d="M866.68 300.65c-5.16 0-10.44-.49-15.6-1.6-5.04-.98-10.08-2.58-14.87-4.55-4.79-1.97-9.46-4.42-13.76-7.37-4.42-2.83-8.47-6.14-12.16-9.83-3.69-3.69-7-7.87-9.95-12.16-2.82-4.3-5.41-8.97-7.37-13.76-1.97-4.91-3.44-9.95-4.55-14.98-.98-5.16-1.6-10.44-1.6-15.6s.61-10.44 1.6-15.6c1.11-5.04 2.58-10.07 4.55-14.99 1.96-4.79 4.54-9.46 7.37-13.75 2.95-4.3 6.26-8.48 9.95-12.16 3.69-3.68 7.74-7 12.16-9.82 4.3-2.95 8.97-5.41 13.76-7.37 4.79-1.97 9.83-3.56 14.87-4.55 10.32-2.09 21-2.09 31.2 0 5.16.98 10.2 2.58 14.99 4.55 4.79 1.97 9.46 4.42 13.76 7.37 4.42 2.82 8.47 6.14 12.16 9.82 14.86 14.86 23.34 35.5 23.34 56.51 0 5.16-.49 10.44-1.47 15.6-1.11 5.03-2.58 10.07-4.55 14.98-2.09 4.79-4.54 9.46-7.37 13.76-2.95 4.3-6.26 8.47-9.95 12.16-3.69 3.68-7.74 7-12.16 9.83-4.3 2.95-8.97 5.4-13.76 7.37-4.79 1.97-9.83 3.56-14.99 4.55-5.04 1.09-10.32 1.59-15.6 1.59z"></path>
					</svg>
				</svg>
			</g>
		</g>
		<g transform="translate(0,65.37200546264648)">
			<g data-gra="path-name" fill-rule="">
				<g transform="scale(1)">
					<g>
						<path d="M12.6-30.48L12.6-2.52Q12.6 0.36 9.24 0.36L9.24 0.36Q5.94 0.36 5.94-2.52L5.94-2.52 5.94-30.48 3.06-30.48Q0.9-30.48 0.78-33.3L0.78-33.3Q0.78-36.12 3.06-36.12L3.06-36.12 5.94-36.12 5.94-39Q5.94-41.46 6.63-43.17 7.32-44.88 8.88-45.78L8.88-45.78 8.88-45.72Q10.44-46.68 12.09-47.22 13.74-47.76 15.6-47.76L15.6-47.76 17.04-47.76Q19.26-47.76 19.26-44.94L19.26-44.94Q19.38-42.12 17.04-42.12L17.04-42.12 16.08-42.12Q14.94-42.12 14.25-41.91 13.56-41.7 13.2-41.28 12.84-40.86 12.72-40.26 12.6-39.66 12.6-38.94L12.6-38.94 12.6-36.12 17.1-36.12Q19.44-36.12 19.32-33.3L19.32-33.3Q19.32-30.48 17.1-30.48L17.1-30.48 12.6-30.48ZM31.26-45.36L31.26-2.34Q31.26 0.48 27.96 0.48L27.96 0.48Q24.6 0.48 24.6-2.34L24.6-2.34 24.6-45.36Q24.6-48.18 27.96-48.18L27.96-48.18Q31.26-48.18 31.26-45.36L31.26-45.36ZM44.58 8.4L41.46 8.4Q39.36 8.4 39.24 5.58L39.24 5.58Q39.24 2.76 41.46 2.76L41.46 2.76 44.1 2.76Q46.2 2.76 46.86 1.5L46.86 1.5 47.7-0.72 48-1.68 36.3-32.34 36.3-32.28Q35.82-33.72 36.51-34.74 37.2-35.76 38.64-36.24L38.64-36.24Q39.72-36.54 40.38-36.54L40.38-36.54Q42.12-36.54 42.54-34.5L42.54-34.5 47.28-22.68 51.3-12.84 57.72-34.38Q58.26-36.54 60.24-36.54L60.24-36.54Q60.72-36.54 61.8-36.24L61.8-36.24Q63.24-35.82 63.87-34.86 64.5-33.9 64.14-32.58L64.14-32.58Q61.44-23.4 58.65-14.1 55.86-4.8 53.16 4.32L53.16 4.32Q52.86 4.98 52.23 5.67 51.6 6.36 50.58 6.99 49.56 7.62 48.06 8.01 46.56 8.4 44.58 8.4L44.58 8.4ZM86.16 0L78.3 0Q76.44 0 74.76-0.51 73.08-1.02 71.52-1.98L71.52-1.98 71.52-1.92Q68.58-3.78 68.58-8.76L68.58-8.76 68.58-11.7Q68.58-14.16 69.45-15.99 70.32-17.82 71.88-18.9L71.88-18.9 71.82-18.9Q73.32-19.92 75-20.43 76.68-20.94 78.24-20.94L78.24-20.94 91.5-20.94 91.5-26.52Q91.5-28.02 90.57-29.25 89.64-30.48 87.42-30.48L87.42-30.48 80.4-30.48Q78.12-30.48 77.25-29.37 76.38-28.26 76.38-26.76L76.38-26.76 76.38-26.28Q76.38-23.16 73.02-23.16L73.02-23.16Q69.66-23.16 69.66-26.28L69.66-26.28 69.66-26.82Q69.66-29.28 70.53-30.96 71.4-32.64 72.9-33.78L72.9-33.78 72.84-33.78Q74.4-34.8 76.11-35.46 77.82-36.12 79.38-36.12L79.38-36.12 88.5-36.12Q90-36.12 91.71-35.46 93.42-34.8 94.92-33.78L94.92-33.78 94.86-33.78Q96.42-32.64 97.26-30.81 98.1-28.98 98.1-26.58L98.1-26.58 98.1-2.52Q98.1 0.36 94.8 0.36L94.8 0.36Q94.14 0.36 93.57 0.3 93 0.24 92.55-0.03 92.1-0.3 91.83-0.81 91.56-1.32 91.56-2.16L91.56-2.16 91.5-15.3 79.38-15.3Q78.06-15.3 77.34-15 76.62-14.7 76.2-14.04L76.2-14.04Q75.72-13.02 75.51-12.45 75.3-11.88 75.3-11.16L75.3-11.16 75.3-8.82Q75.3-7.26 76.23-6.45 77.16-5.64 79.44-5.64L79.44-5.64 86.16-5.64Q88.38-5.64 88.38-2.82L88.38-2.82Q88.38-1.62 87.84-0.81 87.3 0 86.16 0L86.16 0ZM125.1 0L117.96 0Q115.8 0 115.68-2.82L115.68-2.82Q115.68-5.64 117.96-5.64L117.96-5.64 124.02-5.64Q126.24-5.64 127.17-6.9 128.1-8.16 128.1-9.6L128.1-9.6 128.1-26.52Q128.1-28.02 127.17-29.31 126.24-30.6 123.96-30.48L123.96-30.48 112.44-30.48 112.44 5.58Q112.44 8.4 109.14 8.4L109.14 8.4Q105.84 8.4 105.84 5.52L105.84 5.52 105.84-32.58Q105.84-34.68 106.92-35.4 108-36.12 109.56-36.12L109.56-36.12 125.1-36.12Q126.66-36.12 128.25-35.58 129.84-35.04 131.52-34.08L131.52-34.08Q132.96-33.06 133.83-31.23 134.7-29.4 134.7-26.94L134.7-26.94 134.7-9.18Q134.7-4.26 131.52-2.16L131.52-2.16Q128.16 0 125.1 0L125.1 0ZM148.98-33.48L148.98-2.52Q148.98 0.36 145.68 0.36L145.68 0.36Q142.32 0.36 142.32-2.52L142.32-2.52 142.32-33.48Q142.32-36.36 145.68-36.36L145.68-36.36Q148.98-36.36 148.98-33.48L148.98-33.48ZM150.24-43.92L150.24-43.92Q150.24-42 148.92-40.68 147.6-39.36 145.68-39.36L145.68-39.36Q143.76-39.36 142.41-40.68 141.06-42 141.06-43.92L141.06-43.92Q141.06-45.9 142.41-47.22 143.76-48.54 145.68-48.54L145.68-48.54Q147.6-48.54 148.92-47.22 150.24-45.9 150.24-43.92Z" transform="translate(-0.7799999713897705, 48.540000915527344)"></path>
					</g>
				</g>
			</g>
		</g>
	</g>
</svg>
